<svg width="56" height="40" viewBox="0 0 56 40" fill="none" xmlns="http://www.w3.org/2000/svg">
<path d="M51.4318 40H4.58975C2.05956 40 0.0219727 37.9845 0.0219727 35.4817V4.51827C0.0219727 2.0155 2.05956 0 4.58975 0H51.4318C53.962 0 55.9996 2.0155 55.9996 4.51827V35.4817C55.9996 37.9845 53.962 40 51.4318 40Z" fill="#1C1C1C"/>
<path d="M51.4322 0H35.8033C37.9752 3.36656 39.2291 7.37541 39.2291 11.6722C39.2291 23.6766 29.377 33.4219 17.2411 33.4219C10.2551 33.4219 4.03039 35.0831 0 30.0554V35.4596C0.022391 37.9845 2.05998 40 4.59016 40H51.4322C53.9624 40 56 37.9845 56 35.4817V4.51827C56 2.03765 53.9624 0 51.4322 0Z" fill="#141414"/>
<path d="M18.0246 17.8082H8.10532C7.38881 17.8082 6.80664 17.2324 6.80664 16.5236V9.72406C6.80664 9.01531 7.38881 8.43945 8.10532 8.43945H18.0469C18.7635 8.43945 19.3456 9.01531 19.3456 9.72406V16.5236C19.3232 17.2324 18.7411 17.8082 18.0246 17.8082Z" fill="#141414"/>
<path d="M18.2487 17.3649H8.32944C7.61293 17.3649 7.03076 16.789 7.03076 16.0803V9.2807C7.03076 8.57195 7.61293 7.99609 8.32944 7.99609H18.2711C18.9876 7.99609 19.5697 8.57195 19.5697 9.2807V16.0803C19.5474 16.789 18.9652 17.3649 18.2487 17.3649Z" fill="#FBC02D"/>
<path d="M11.7104 7.99609H10.1206V17.3427H11.7104V7.99609Z" fill="#C49000"/>
<path d="M19.5474 11.97V10.3975L10.6133 10.3975V11.97L19.5474 11.97Z" fill="#C49000"/>
<path d="M19.5425 15.1546V13.582L10.6085 13.582V15.1546L19.5425 15.1546Z" fill="#C49000"/>
<path d="M13.2331 28.6826H8.62053C7.74728 28.6826 7.03076 27.9738 7.03076 27.11V25.8919C7.03076 25.0281 7.74728 24.3193 8.62053 24.3193H13.2331C14.1063 24.3193 14.8228 25.0281 14.8228 25.8919V27.11C14.8228 27.9738 14.1063 28.6826 13.2331 28.6826Z" fill="#515150"/>
<path d="M24.5852 28.6826H19.995C19.1218 28.6826 18.4053 27.9738 18.4053 27.11V25.8919C18.4053 25.0281 19.1218 24.3193 19.995 24.3193H24.5852C25.4585 24.3193 26.175 25.0281 26.175 25.8919V27.11C26.175 27.9738 25.4808 28.6826 24.5852 28.6826Z" fill="#515150"/>
<path d="M36.0271 28.6826H31.4369C30.5637 28.6826 29.8472 27.9738 29.8472 27.11V25.8919C29.8472 25.0281 30.5637 24.3193 31.4369 24.3193H36.0271C36.9003 24.3193 37.6169 25.0281 37.6169 25.8919V27.11C37.6169 27.9738 36.9003 28.6826 36.0271 28.6826Z" fill="#515150"/>
<path d="M47.402 28.6826H42.7895C41.9162 28.6826 41.1997 27.9738 41.1997 27.11V25.8919C41.1997 25.0281 41.9162 24.3193 42.7895 24.3193H47.3796C48.2529 24.3193 48.9694 25.0281 48.9694 25.8919V27.11C48.9918 27.9738 48.2753 28.6826 47.402 28.6826Z" fill="#3F3F3F"/>
<path d="M25.369 33.8203H7.83684C7.38902 33.8203 7.03076 33.4659 7.03076 33.0229C7.03076 32.58 7.38902 32.2256 7.83684 32.2256H25.3466C25.7945 32.2256 26.1527 32.58 26.1527 33.0229C26.1751 33.4659 25.8168 33.8203 25.369 33.8203Z" fill="#777776"/>
<path d="M36.8111 33.8203H28.8622C28.4144 33.8203 28.0562 33.4659 28.0562 33.0229C28.0562 32.58 28.4144 32.2256 28.8622 32.2256H36.8111C37.2589 32.2256 37.6171 32.58 37.6171 33.0229C37.6171 33.4659 37.2589 33.8203 36.8111 33.8203Z" fill="#777776"/>
<path d="M35.1762 24.2969C33.7431 26.401 31.0786 28.6823 31.0786 28.6823H36.0494C36.9227 28.6823 37.6392 27.9735 37.6392 27.1097V25.8916C37.6392 25.0278 36.9227 24.319 36.0494 24.319H34.9523" fill="#3F3F3F"/>
<path d="M34.661 12.537C34.7953 12.382 34.8625 12.1827 34.8625 11.9612C34.8625 11.4518 34.4371 11.0088 33.8997 11.0088H32.7354H32.4219V11.3189C32.4219 11.4961 32.5562 11.6289 32.7354 11.6289H33.004H33.8997C34.0788 11.6289 34.2132 11.7618 34.2132 11.939C34.2132 12.1162 34.0788 12.2491 33.8997 12.2491H33.004H32.4219V13.5116V14.1317H33.0488H34.0116C34.5266 14.1317 34.9745 13.7109 34.9745 13.1793C34.9521 12.9578 34.8401 12.7142 34.661 12.537ZM33.9892 13.5337H33.0936H33.0488V13.2236V13.2015V12.8914H33.0936H33.8997H33.9892C34.1684 12.8914 34.3027 13.0243 34.3027 13.2015C34.3027 13.3787 34.1684 13.5337 33.9892 13.5337Z" fill="white"/>
<path d="M48.6555 13.6878L48.23 12.8683C48.6331 12.7575 48.9018 12.4032 48.9018 11.9602C48.9018 11.4508 48.4763 11.0078 47.939 11.0078H46.9761H46.6627H46.3716V11.3179C46.3716 11.4951 46.5059 11.628 46.6851 11.628H46.9985H47.0433H47.939C48.1181 11.628 48.2524 11.7609 48.2524 11.938C48.2524 12.1152 48.1181 12.2481 47.939 12.2481H47.0433H46.9985H46.3716V13.8207C46.3716 13.9978 46.5059 14.1307 46.6851 14.1307H46.9985V13.8207V12.8904H47.5359L48.0957 13.9535C48.0957 13.9535 48.0957 13.9757 48.1181 13.9757C48.1629 14.0643 48.2748 14.1307 48.3868 14.1307H48.9018L48.6779 13.6878H48.6555Z" fill="white"/>
<path d="M44.1548 11.6504H45.7445H46.058V11.3404C46.058 11.1632 45.9237 11.0303 45.7445 11.0303H44.1548H43.8413V11.3404C43.8413 11.4954 43.9757 11.6504 44.1548 11.6504Z" fill="white"/>
<path d="M46.058 13.8434C46.058 13.6662 45.9237 13.5333 45.7445 13.5333H44.4683V12.9131H45.7445C45.9237 12.9131 46.058 12.7802 46.058 12.603V12.293H45.7445H44.4683H43.8413V12.9131V13.5333V14.1534H44.4683H45.5654H45.7222H46.0356L46.058 13.8434Z" fill="white"/>
<path d="M43.5054 13.8431C43.5054 13.6659 43.371 13.533 43.1919 13.533H41.938V11.3404C41.938 11.1632 41.8036 11.0303 41.6245 11.0303H41.311V11.3404V13.533V14.1532H41.938H43.5278V13.8431C43.5054 13.8431 43.5054 13.8431 43.5054 13.8431Z" fill="white"/>
<path d="M40.6615 11.0078H40.0346H39.4076H38.7583H38.4448V11.3179C38.4448 11.4951 38.5792 11.628 38.7583 11.628H39.3852V13.8207C39.3852 13.9978 39.5196 14.1307 39.6987 14.1307H40.0122V13.8871C40.0122 13.865 40.0122 13.8428 40.0122 13.8207C40.0122 13.7985 40.0122 13.7764 40.0122 13.7542V11.6501H40.6391H40.9526V11.34C40.975 11.1629 40.8407 11.0078 40.6615 11.0078Z" fill="white"/>
<path d="M37.7959 11.0078C37.6168 11.0078 37.4824 11.1407 37.4824 11.3179V11.5615V12.7354C37.4824 13.1784 37.1242 13.5106 36.6987 13.5106C36.2733 13.5106 35.915 13.1562 35.915 12.7354V11.5615V11.3179C35.915 11.1407 35.7807 11.0078 35.6016 11.0078H35.2881V12.7354C35.2881 13.5106 35.9374 14.1529 36.7211 14.1529C37.5048 14.1529 38.1541 13.5106 38.1541 12.7354V11.0078H37.7959Z" fill="white"/>
<path d="M30.9667 11.5168L30.5189 11.2067L30.4741 11.1845L30.4293 11.1402L30.0487 10.8745L29.265 10.3207L29.2202 10.2986C29.1978 10.2986 29.1978 10.2764 29.1754 10.2764C29.0635 10.1879 28.9067 10.1436 28.75 10.1436C28.5485 10.1436 28.3917 10.21 28.2574 10.3429L27.4737 10.8966L27.1378 11.1402H27.1154L27.0035 11.2288L26.5781 11.5168C26.3765 11.6496 26.2422 11.8711 26.2422 12.1369V13.8866C26.2422 14.3075 26.5781 14.6397 27.0035 14.6397H27.4961C27.9215 14.6397 28.2574 14.3075 28.2574 13.8866H27.7648H27.0035V13.3329V13.1336V12.89V12.1369L27.608 11.6939L28.1454 11.3174L28.2574 11.2288L28.75 10.8745L29.2426 11.2288L29.3545 11.3174L29.8919 11.6939L30.4965 12.1369V12.89V13.1336V13.3329V13.8645H29.7352H29.2426C29.2426 14.2853 29.5785 14.6175 30.0039 14.6175H30.4965C30.9219 14.6175 31.2578 14.2853 31.2578 13.8645V12.1148C31.2802 11.8711 31.1458 11.6496 30.9667 11.5168Z" fill="white"/>
</svg>
