<svg width="20" height="20" viewBox="0 0 20 20" fill="none" xmlns="http://www.w3.org/2000/svg">
<path fill-rule="evenodd" clip-rule="evenodd" d="M10 1.58301C8.20979 1.58301 6.4929 2.29417 5.22703 3.56004C3.96116 4.82591 3.25 6.5428 3.25 8.33301C3.25 10.9482 4.9493 13.4737 6.79447 15.4214C7.70171 16.379 8.6115 17.1627 9.29532 17.7072C9.57402 17.9292 9.81417 18.1106 10 18.247C10.1858 18.1106 10.426 17.9292 10.7047 17.7072C11.3885 17.1627 12.2983 16.379 13.2055 15.4214C15.0507 13.4737 16.75 10.9482 16.75 8.33301C16.75 6.5428 16.0388 4.82591 14.773 3.56004C13.5071 2.29417 11.7902 1.58301 10 1.58301ZM10 19.1663C9.58398 19.7904 9.58378 19.7903 9.58356 19.7901L9.58129 19.7886L9.57588 19.785L9.55709 19.7722C9.54107 19.7614 9.51813 19.7457 9.48875 19.7253C9.42998 19.6846 9.34538 19.6252 9.23862 19.5481C9.02518 19.394 8.72274 19.1688 8.36093 18.8807C7.6385 18.3054 6.67329 17.4745 5.70554 16.453C3.8007 14.4423 1.75 11.5511 1.75 8.33301C1.75 6.14497 2.61919 4.04655 4.16637 2.49938C5.71354 0.952202 7.81196 0.0830078 10 0.0830078C12.188 0.0830078 14.2865 0.952202 15.8336 2.49938C17.3808 4.04655 18.25 6.14497 18.25 8.33301C18.25 11.5511 16.1993 14.4423 14.2945 16.453C13.3267 17.4745 12.3615 18.3054 11.6391 18.8807C11.2773 19.1688 10.9748 19.394 10.7614 19.5481C10.6546 19.6252 10.57 19.6846 10.5113 19.7253C10.4819 19.7457 10.4589 19.7614 10.4429 19.7722L10.4241 19.785L10.4187 19.7886L10.417 19.7897C10.4168 19.7899 10.416 19.7904 10 19.1663ZM10 19.1663L10.416 19.7904C10.1641 19.9583 9.83549 19.9581 9.58356 19.7901L10 19.1663Z" fill="#1C1C1C"/>
<path fill-rule="evenodd" clip-rule="evenodd" d="M10 6.58301C9.0335 6.58301 8.25 7.36651 8.25 8.33301C8.25 9.29951 9.0335 10.083 10 10.083C10.9665 10.083 11.75 9.29951 11.75 8.33301C11.75 7.36651 10.9665 6.58301 10 6.58301ZM6.75 8.33301C6.75 6.53808 8.20507 5.08301 10 5.08301C11.7949 5.08301 13.25 6.53808 13.25 8.33301C13.25 10.1279 11.7949 11.583 10 11.583C8.20507 11.583 6.75 10.1279 6.75 8.33301Z" fill="#1C1C1C"/>
</svg>
